<?xml version="1.0" encoding="UTF-8"?>
<!DOCTYPE svg PUBLIC "-//W3C//DTD SVG 1.1//EN" "http://www.w3.org/Graphics/SVG/1.1/DTD/svg11.dtd">
<!-- Creator: CorelDRAW -->
<svg xmlns="http://www.w3.org/2000/svg" xml:space="preserve" width="60.2557mm" height="55.3287mm" version="1.1" style="shape-rendering:geometricPrecision; text-rendering:geometricPrecision; image-rendering:optimizeQuality; fill-rule:evenodd; clip-rule:evenodd"
viewBox="0 0 5213.28 4787"
 xmlns:xlink="http://www.w3.org/1999/xlink"
 xmlns:xodm="http://www.corel.com/coreldraw/odm/2003">
 <defs>
  <style type="text/css">
   <![CDATA[
    .str0 {stroke:#fff;stroke-width:244.17;stroke-miterlimit:22.9256}
    .fil1 {fill:none}
    .fil0 {fill:#fff}
    .fil2 {fill:#fff;fill-rule:nonzero}
   ]]>
  </style>
 </defs>
 <g id="Layer_x0020_1">
  <metadata id="CorelCorpID_0Corel-Layer"/>
  <g id="_2508337243728">
   <g>
    <path class="fil0" d="M1360.1 2471.42l1111.17 -1344.87c59.33,56.96 25.06,47.11 88.62,102.15l78.63 -478 -458.62 168.93 125.17 67.96 -848.22 1072.56c-43.87,42.45 -139.08,161.15 -168.53,183.46 -111.49,106.31 -92.24,-185.51 -29.17,-12.78 31.2,75.38 66.01,152.97 100.96,240.58z"/>
    <path class="fil0" d="M2795.75 3051.43c-103.12,17.21 -295.65,1.87 -410.66,-1.05l484.66 -630.69c44.49,30.28 56.21,62.44 105.17,106.86l72.64 -479.09 -454.63 166.6 123.36 71.75 -442.3 567.66c-42.91,52.92 -119.14,137.03 -150.36,196.75 81.26,68.42 277.82,115.3 519.93,100.85l152.2 -99.64z"/>
    <path class="fil0" d="M3498.48 172.29l131.42 60.68c-139.42,247.36 -1950.38,2397.68 -2002.97,2560.72l164.46 96.9c40.53,-92.41 404.48,-534.89 492.81,-639.44 168.57,-199.51 330.96,-408.73 501.46,-625.31l1007.96 -1248.15 88.55 107.77 77.77 -485.45 -461.45 172.29z"/>
    <path class="fil1 str0" d="M3745.58 810.62c184.65,241.28 294.39,542.96 294.39,870.27 0,791.51 -641.65,1433.18 -1433.18,1433.18 -791.52,0 -1433.18,-641.66 -1433.18,-1433.18 0,-791.52 641.65,-1433.18 1433.18,-1433.18 209.67,0 408.82,45.02 588.31,125.94"/>
   </g>
   <!-- <path class="fil2" d="M594.61 4102.05l-205.75 -515.07 44.67 0 0 -79.7 -207.13 0 0 79.7 44.67 0 -205.75 515.07 -65.32 0 0 79.7 207.13 0 0 -79.7 -55.84 0 39.31 -98.67 278.72 0 39.31 98.67 -55.83 0 0 79.7 207.13 0 0 -79.7 -65.32 0zm-372.19 -178.37l107.54 -269.08 107.53 269.08 -215.08 0zm965.41 178.37l-137.37 -197.49c107.08,-2.91 193.35,-90.72 193.35,-198.72 0,-109.68 -89.18,-198.86 -198.86,-198.86l-346.03 0 0 79.7 53.24 0 0 515.37 -53.24 0 0 79.7 207.89 0 0 -79.7 -74.96 0 0 -197.19 121.62 0 137.22 197.19 -27.69 0 0 79.7 207.9 0 0 -79.7 -83.07 0zm-355.98 -515.37l213.1 0c65.62,0 119.17,53.54 119.17,119.16 0,65.78 -53.55,119.33 -119.17,119.33l-213.1 0 0 -238.49zm942.47 200.55c29.83,-29.68 48.34,-70.68 48.34,-116.11 0,-90.41 -73.58,-163.84 -163.99,-163.84l-194.89 0 0 -0.3 -79.69 0 0 0.3 -53.24 0 0 79.7 53.24 0 0 515.07 -53.24 0 0 79.7 331.8 0c117.48,0 213.09,-95.61 213.09,-213.24 0,-76.49 -40.69,-143.65 -101.42,-181.28l0 0zm-115.65 -200.25c46.5,0 84.14,37.78 84.14,84.14 0,46.5 -37.64,84.29 -84.14,84.29l-194.89 0 0 -168.43 194.89 0zm3.98 515.07l-198.87 0 0 -266.94 198.87 0c73.58,0 133.4,59.81 133.4,133.4 0,73.58 -59.82,133.54 -133.4,133.54l0 0zm516.43 -515.07l0 -79.7 -93.16 0 0 -0.3 -79.7 0 0 0.3 -93.01 0 0 79.7 93.01 0 0 515.07 -93.01 0 0 79.7 265.87 0 0 -79.7 -93.16 0 0 -515.07 93.16 0zm351.99 -79.7l0 -0.3 -79.7 0 0 0.3 -239.41 0 0 126.21 79.7 0 0 -46.5 159.71 0 0 515.07 -53.24 0 0 79.7 186.02 0 0 -79.7 -53.08 0 0 -515.07 159.55 0 0 46.5 79.7 0 0 -126.21 -239.25 0zm771.44 594.77l-137.37 -197.49c107.08,-2.91 193.35,-90.72 193.35,-198.72 0,-109.68 -89.18,-198.86 -198.86,-198.86l-346.03 0 0 79.7 53.24 0 0 515.37 -53.24 0 0 79.7 207.89 0 0 -79.7 -74.96 0 0 -197.19 121.62 0 137.22 197.19 -27.69 0 0 79.7 207.9 0 0 -79.7 -83.07 0zm-355.98 -515.37l213.1 0c65.62,0 119.17,53.54 119.17,119.16 0,65.78 -53.55,119.33 -119.17,119.33l-213.1 0 0 -238.49zm1063.32 515.37l-205.75 -515.07 44.67 0 0 -79.7 -207.13 0 0 79.7 44.67 0 -205.75 515.07 -65.32 0 0 79.7 207.13 0 0 -79.7 -55.84 0 39.31 -98.67 278.72 0 39.31 98.67 -55.83 0 0 79.7 207.13 0 0 -79.7 -65.32 0zm-372.19 -178.37l107.54 -269.08 107.53 269.08 -215.08 0zm756.91 -336.7c80.77,0 155.42,36.87 204.68,101.27l71.44 -24.32 0 -150.07 -79.7 0 0 56.29c-56.45,-40.69 -124.52,-62.87 -196.42,-62.87 -186.02,0 -337.31,151.3 -337.31,337.16 0,186.02 151.3,337.31 337.31,337.31 71.9,0 139.97,-22.33 196.42,-63.03l0 63.03 79.7 0 0 -386.57 -270.62 0 0 79.86 190.91 0 0 135.84c-49.1,58.13 -119.93,91.17 -196.42,91.17 -142.12,0 -257.61,-115.49 -257.61,-257.61 0,-141.96 115.49,-257.46 257.61,-257.46l0 0zm818.71 46.5l0 -126.21 -316.82 0 0 -0.3 -79.69 0 0 0.3 -53.24 0 0 79.7 53.24 0 0 515.07 -53.24 0 0 79.7 449.74 0 0 -126.21 -79.86 0 0 46.5 -236.96 0 0 -217.84 188.32 0 0 29.99 79.7 0 0 -137.22 -79.7 0 0 27.54 -188.32 0 0 -217.54 236.96 0 0 46.5 79.86 0z"/>
   <path class="fil2" d="M1830.99 4379.93l0 -53.25 -35.46 0 0 -0.2 -53.35 0 0 0.2 -35.46 0 0 53.25 19.93 0 -151.77 317.95 -140.33 -317.95 21.26 0 0 -53.25 -35.46 0 0 -0.2 -53.24 0 0 0.2 -35.57 0 0 53.25 35.57 0 0 344.12 -35.57 0 0 53.24 124.28 0 0 -53.24 -35.46 0 0 -244.48 131.34 297.72 44.35 0 146.16 -306.3 0 253.06 -35.46 0 0 53.24 124.28 0 0 -53.24 -35.46 0 0 -344.12 35.46 0zm255.23 0l0 -53.25 -62.24 0 0 -0.2 -53.25 0 0 0.2 -62.14 0 0 53.25 62.14 0 0 344.12 -62.14 0 0 53.24 177.63 0 0 -53.24 -62.24 0 0 -344.12 62.24 0zm524.85 0l0 -53.25 -35.57 0 0 -0.2 -53.25 0 0 0.2 -35.57 0 0 53.25 35.57 0 0 344.12 -19.01 0 -198.79 -397.37 -51.92 0 0 -0.2 -53.24 0 0 0.2 -35.57 0 0 53.25 35.57 0 0 344.12 -35.57 0 0 53.24 124.28 0 0 -53.24 -35.46 0 0 -344.12 19.01 0 198.69 397.37 140.84 0 0 -53.24 -35.57 0 0 -344.12 35.57 0zm384.83 31.07l0 -84.32 -211.67 0 0 -0.2 -53.24 0 0 0.2 -35.57 0 0 53.25 35.57 0 0 344.12 -35.57 0 0 53.24 300.48 0 0 -84.32 -53.36 0 0 31.08 -158.31 0 0 -145.54 125.82 0 0 20.03 53.24 0 0 -91.68 -53.24 0 0 18.4 -125.82 0 0 -145.34 158.31 0 0 31.07 53.36 0zm414.37 313.05l-91.78 -131.95c71.54,-1.94 129.18,-60.61 129.18,-132.76 0,-73.28 -59.59,-132.86 -132.87,-132.86l-231.18 0 0 53.24 35.57 0 0 344.33 -35.57 0 0 53.24 138.89 0 0 -53.24 -50.08 0 0 -131.74 81.25 0 91.68 131.74 -18.5 0 0 53.24 138.9 0 0 -53.24 -55.49 0zm-237.83 -344.33l142.37 0c43.85,0 79.62,35.78 79.62,79.62 0,43.95 -35.78,79.72 -79.62,79.72l-142.37 0 0 -159.33zm707.08 275.54c-2.25,-43.64 -32.7,-84.11 -81.56,-108.43 -22.89,-11.34 -46.7,-18.29 -69.7,-25.04 -14.31,-4.19 -27.7,-8.07 -40.79,-12.98 -32.3,-12.06 -56.92,-31.28 -65.82,-51.51 -5.52,-12.36 -5.22,-25.55 0.61,-40.16 14.1,-34.75 60.5,-45.59 99.13,-38.43 37.2,6.95 79.52,53.86 92.7,71.23l47.94 -14.72c0,-0.2 4.4,-102.3 4.4,-102.3l-53.25 -2.35 -1.64 39.35c-22.07,-19.22 -50.29,-37.92 -80.33,-43.54 -58.05,-10.83 -132.35,6.64 -158.31,70.82 -11.24,27.8 -11.24,56.01 0,81.56 14.72,33.62 49.77,62.75 95.97,80.02 14.92,5.52 29.95,9.92 44.46,14.1 21.77,6.34 42.31,12.37 60.91,21.67 24.23,12.06 50.6,35.05 52.13,63.37 1.43,29.33 -25.96,55.6 -52.43,65.51 -71.03,26.36 -149.12,0.92 -185.71,-60.61l-49.57 13.7 0 101.49 53.24 0 0 -32.51c35.37,26.88 79.42,41.49 124.99,41.49 25.14,0 50.7,-4.4 75.53,-13.7 53.86,-19.93 89.63,-68.47 87.08,-118.05l0 0z"/> -->
  </g>
 </g>
</svg>
